<svg xmlns="http://www.w3.org/2000/svg" viewBox="0 0 100 100" fill="none">
  <polygon points="8,58 26,22 38,52" fill="#f0c840"/>
  <polygon points="26,22 38,52 38,58" fill="#c8a020"/>
  <polygon points="38,52 38,58 50,14" fill="#e8b428"/>
  <polygon points="62,52 62,58 50,14" fill="#c49a18"/>
  <polygon points="62,52 62,58 74,22" fill="#e0aa20"/>
  <polygon points="74,22 62,58 92,58" fill="#b08010"/>
  <polygon points="8,58 38,58 8,82" fill="#d4a020"/>
  <polygon points="38,58 30,82 8,82" fill="#b88c14"/>
  <polygon points="38,58 62,58 38,82" fill="#e8b428"/>
  <polygon points="62,58 62,82 38,82" fill="#c8a020"/>
  <polygon points="62,58 92,58 92,82" fill="#c49a18"/>
  <polygon points="62,58 70,82 92,82" fill="#a07810"/>
  <polygon points="8,82 92,82 92,86 8,86" fill="#8a6608"/>
  <polygon points="26,15 32,22 26,29 20,22" fill="#28a74e"/>
  <polygon points="26,15 32,22 26,22" fill="#44cf6c"/>
  <polygon points="50,7 57,14 50,21 43,14" fill="#28a74e"/>
  <polygon points="50,7 57,14 50,14" fill="#44cf6c"/>
  <polygon points="74,15 80,22 74,29 68,22" fill="#28a74e"/>
  <polygon points="74,15 80,22 74,22" fill="#44cf6c"/>
</svg>
